<?xml version="1.0" encoding="utf-8"?>
<!-- Generator: Adobe Illustrator 23.0.3, SVG Export Plug-In . SVG Version: 6.00 Build 0)  -->
<svg version="1.1" id="Layer_1" xmlns="http://www.w3.org/2000/svg" xmlns:xlink="http://www.w3.org/1999/xlink" x="0px" y="0px"
	 viewBox="0 0 1287.3 490.8" style="enable-background:new 0 0 1287.3 490.8;" xml:space="preserve">
<style type="text/css">
	.st0{fill:#1E56D3;}
	.st1{fill:none;}
	.st2{font-family:'FuturaBT-Heavy';}
	.st3{font-size:300px;}
	.st4{font-size:100px;}
</style>
<g>
	<path class="st0" d="M193.7,234.9h-91.2c-17.1,0-31-13.9-31-31v-91.2c0-17.1,13.9-31,31-31h91.2c17.1,0,31,13.9,31,31v91.2
		C224.7,221,210.8,234.9,193.7,234.9z"/>
	<path class="st0" d="M193.7,412.9h-91.2c-17.1,0-31-13.9-31-31v-91.2c0-17.1,13.9-31,31-31h91.2c17.1,0,31,13.9,31,31v91.2
		C224.7,399,210.8,412.9,193.7,412.9z"/>
	<path class="st0" d="M375.6,412.9h-91.2c-17.1,0-31-13.9-31-31v-91.2c0-17.1,13.9-31,31-31h0c67.5,0,122.2,54.7,122.2,122.2v0
		C406.6,399,392.7,412.9,375.6,412.9z"/>
	<path class="st0" d="M284.4,234.9L284.4,234.9c-17.1,0-31-13.9-31-31v-91.2c0-17.1,13.9-31,31-31h91.2c17.1,0,31,13.9,31,31v0
		C406.6,180.2,351.9,234.9,284.4,234.9z"/>
	<rect x="424.7" y="180.9" class="st1" width="1459.6" height="572.1"/>
	<text transform="matrix(1 0 0 1 424.704 407.9614)"><tspan x="0" y="0" class="st0 st2 st3">OL</tspan><tspan x="406.2" y="0" class="st0 st2 st4"> </tspan><tspan x="436.9" y="0" class="st0 st2 st3">AB</tspan></text>
</g>
</svg>
